<?xml version="1.0" encoding="utf-8"?>
<!-- Generator: Adobe Illustrator 18.1.0, SVG Export Plug-In . SVG Version: 6.00 Build 0)  -->
<!DOCTYPE svg PUBLIC "-//W3C//DTD SVG 1.1//EN" "http://www.w3.org/Graphics/SVG/1.1/DTD/svg11.dtd">
<svg version="1.1" id="レイヤー_2" xmlns="http://www.w3.org/2000/svg" xmlns:xlink="http://www.w3.org/1999/xlink" x="0px"
	 y="0px" viewBox="0 0 32 32" enable-background="new 0 0 32 32" xml:space="preserve">
<path fill="#FFFFFF" d="M28,4.9c-2.5-2.2-6-3.5-10.1-3.5C7.3,1.4,0,9.6,0,9.6l2,3.2c0,0,1.1,0.1,0.5-1.8c0.5-1,1.5-2.3,3.5-3.8
	c0,0,0,20.5,0,21.6c-0.9,0.2-2,0.7-1.2,1.5c1.3,0,4.9,0,5.9,0c0.8-0.8-0.4-1.2-1.2-1.5c0-0.8,0-5.1,0-5.1s4,1.6,8.4,1.6
	c3.8,0,7.3-1.1,9.9-3.2c2.6-2,4.2-5.1,4.2-8.5C32,10.2,30.5,7.1,28,4.9z M24.9,20.4c-1.8,1.8-4.4,2.9-7.4,2.9c-3.3,0-6.1-0.6-8-1.6
	c0,0,0-0.6,0-4.6c0-4.4,0-11.6,0-11.6c2-1.4,5.3-2.3,8-2.3c3.2,0,5.8,1.2,7.5,3.1c1.7,1.9,2.7,4.3,2.7,7.2
	C27.7,16.4,26.7,18.7,24.9,20.4z"/>
</svg>
