<?xml version="1.0" encoding="utf-8"?>
<!-- Generator: Adobe Illustrator 18.1.0, SVG Export Plug-In . SVG Version: 6.00 Build 0)  -->
<!DOCTYPE svg PUBLIC "-//W3C//DTD SVG 1.1//EN" "http://www.w3.org/Graphics/SVG/1.1/DTD/svg11.dtd">
<svg version="1.1" id="レイヤー_5" xmlns="http://www.w3.org/2000/svg" xmlns:xlink="http://www.w3.org/1999/xlink" x="0px"
	 y="0px" viewBox="0 0 32 32" enable-background="new 0 0 32 32" xml:space="preserve">
<path fill="#999999" d="M11.6,11.2c0-0.8,1.1-1.4,2.4-1.8c1.3-0.4,2.7-0.7,3.3-0.7c2.3,0,4.5,0.9,6.1,2.5l6.1,6.1
	c1.6,1.6,2.5,3.8,2.5,6.1c0,2.4-0.9,4.5-2.5,6.1C27.9,31,25.7,32,23.4,32c-2.3,0-4.5-1-6.1-2.5c-0.1-0.1-0.2-0.2-0.4-0.4
	c-0.4-0.3-0.7-0.7-0.9-1c-0.1-0.2-0.2-0.3-0.2-0.5c0-0.2,0.1-0.4,0.3-0.6c0.1-0.1,0.2-0.2,0.5-0.2c1.3-0.3,2.3-0.6,3.5-1.1
	c0.2-0.1,0.3-0.1,0.3-0.1c0.2,0,0.3,0.1,0.5,0.2c0.4,0.3,0.8,0.6,1.4,0.9c0.3,0.1,0.7,0.2,1.2,0.2c1.9,0,3.4-1.5,3.4-3.4
	c0-1.1-0.5-2-1.2-2.8c-0.4-0.4-0.7-0.7-1.1-1.1c-0.4-0.4-0.8-0.7-1.1-1.1l-3.6-3.6c-0.7-0.7-1.5-1-2.5-1c-0.6,0-1.1,0.1-1.4,0.3
	c-0.4,0.2-0.7,0.4-0.9,0.4c-0.3,0-1.1-0.7-1.9-1.4C12.3,12.4,11.6,11.5,11.6,11.2z M0,8.6c0-2.3,1-4.5,2.5-6.1S6.2,0,8.6,0
	c2.3,0,4.5,0.9,6.1,2.5c0.1,0.1,0.3,0.2,0.4,0.4c0.4,0.3,0.7,0.7,0.9,1c0.1,0.2,0.2,0.3,0.2,0.5c0,0.5-0.2,0.8-0.7,0.9
	c-1.3,0.3-2.3,0.6-3.5,1.1c-0.1,0.1-0.2,0.1-0.3,0.1c-0.2,0-0.3-0.1-0.5-0.2C10.9,6,10.4,5.7,9.8,5.4C9.4,5.2,9.1,5.2,8.6,5.2
	c-0.9,0-1.8,0.4-2.4,1c-0.6,0.6-1,1.5-1,2.4c0,1.1,0.5,2,1.2,2.8c0.3,0.4,0.7,0.8,1.1,1.1c0.4,0.4,0.8,0.7,1.1,1.1l3.6,3.6
	c0.6,0.7,1.5,1,2.4,1c0.6,0,1.1-0.1,1.5-0.3c0.4-0.2,0.7-0.3,0.9-0.3c0.3,0,1.1,0.7,1.9,1.4c0.8,0.7,1.4,1.6,1.4,2
	c0,0.8-1.1,1.3-2.4,1.8c-1.3,0.4-2.7,0.7-3.3,0.7c-2.3,0-4.4-0.9-6.1-2.5l-6.1-6.1C0.9,13.2,0,10.9,0,8.6z"/>
</svg>
