<?xml version="1.0" encoding="utf-8"?>
<!-- Generator: Adobe Illustrator 18.1.0, SVG Export Plug-In . SVG Version: 6.00 Build 0)  -->
<!DOCTYPE svg PUBLIC "-//W3C//DTD SVG 1.1//EN" "http://www.w3.org/Graphics/SVG/1.1/DTD/svg11.dtd">
<svg version="1.1" id="レイヤー_3" xmlns="http://www.w3.org/2000/svg" xmlns:xlink="http://www.w3.org/1999/xlink" x="0px"
	 y="0px" viewBox="0 0 32 32" enable-background="new 0 0 32 32" xml:space="preserve">
<path fill-rule="evenodd" clip-rule="evenodd" fill="#FFFFFF" d="M28.3,13.5h-2.8c0.2,0.8,0.3,1.6,0.3,2.5c0,5.4-4.4,9.8-9.8,9.8
	c-5.4,0-9.8-4.4-9.8-9.8c0-0.9,0.1-1.7,0.3-2.5H3.7v13.5c0,0.7,0.6,1.2,1.2,1.2h22.2c0.7,0,1.2-0.6,1.2-1.2V13.5z M28.3,4.9
	c0-0.7-0.6-1.2-1.2-1.2h-3.7c-0.7,0-1.2,0.6-1.2,1.2v3.7c0,0.7,0.6,1.2,1.2,1.2h3.7c0.7,0,1.2-0.6,1.2-1.2V4.9z M16,9.8
	c-3.4,0-6.2,2.8-6.2,6.2c0,3.4,2.8,6.2,6.2,6.2s6.2-2.8,6.2-6.2C22.2,12.6,19.4,9.8,16,9.8 M28.3,32H3.7c-2,0-3.7-1.7-3.7-3.7V3.7
	C0,1.7,1.7,0,3.7,0h24.6c2,0,3.7,1.7,3.7,3.7v24.6C32,30.3,30.3,32,28.3,32"/>
</svg>
