<?xml version="1.0" encoding="utf-8"?>
<!-- Generator: Adobe Illustrator 18.1.0, SVG Export Plug-In . SVG Version: 6.00 Build 0)  -->
<!DOCTYPE svg PUBLIC "-//W3C//DTD SVG 1.1//EN" "http://www.w3.org/Graphics/SVG/1.1/DTD/svg11.dtd">
<svg version="1.1" id="レイヤー_1" xmlns="http://www.w3.org/2000/svg" xmlns:xlink="http://www.w3.org/1999/xlink" x="0px"
	 y="0px" viewBox="0 0 32 32" enable-background="new 0 0 32 32" xml:space="preserve">
<path fill="#FFFFFF" d="M32,7.4V4.9h-4.9V0h-2.5v4.9h-4.9v2.5h4.9v4.9h2.5V7.4H32z M20.4,0H12c-1.2,0-2.4,0.1-3.6,0.4
	C4.9,1.2,2.1,4.3,2.1,7.9c0,3.9,3.2,6.6,7,6.6c0.4,0,0.9,0,1.3-0.1c-0.2,0.6-0.4,1-0.4,1.7c0,1.1,0.6,2,1.2,2.9
	c-3.4,0.1-8.8,1-10.5,4.4C0.3,24.2,0,25.1,0,26c0,4.5,5.2,6,8.8,6c2.8,0,5.9-0.6,8.1-2.5c1.6-1.4,2.7-3.2,2.7-5.4
	c0-5.4-5.8-6.4-5.8-8.8c0-2.5,4.3-2.9,4.3-8c0-2.2-1-4.5-2.9-5.7h2.6L20.4,0z M14.5,9.1c0,2.3-0.9,4.2-3.5,4.2
	c-3.4,0-5.3-4.6-5.3-7.5c0-2.3,1.2-4.5,3.7-4.5C13,1.4,14.5,6.2,14.5,9.1z M16.8,25.7c0,3.4-3.2,4.5-6.1,4.5c-3.1,0-7.2-1.4-7.2-5.1
	c0-4,4.7-5,7.8-5c0.3,0,0.6,0,1,0C14.3,21.5,16.8,23,16.8,25.7z"/>
</svg>
